<?xml version="1.0" encoding="UTF-8"?>
<svg version="1.1" xmlns="http://www.w3.org/2000/svg" width="512" height="512">
<path d="M0 0 C0.94975655 -0.00445784 1.8995131 -0.00891569 2.87805015 -0.01350862 C3.92355684 -0.01332426 4.96906354 -0.01313989 6.04625225 -0.01294994 C7.70983643 -0.01846498 7.70983643 -0.01846498 9.40702838 -0.02409142 C13.14262451 -0.0351503 16.87819284 -0.03897582 20.61380291 -0.04278088 C23.28428088 -0.04904377 25.95475586 -0.05567741 28.62523174 -0.0626936 C36.65225389 -0.08245509 44.6792773 -0.09252317 52.70631769 -0.10142139 C56.48561198 -0.10580423 60.26490486 -0.111171 64.04419804 -0.11641026 C76.60559613 -0.13342115 89.16699334 -0.14791612 101.72840118 -0.155159 C104.98805333 -0.15706891 108.24770548 -0.15898924 111.5073576 -0.16094494 C112.31753445 -0.16142868 113.1277113 -0.16191242 113.96243896 -0.16241082 C127.09175367 -0.17071416 140.22097736 -0.1960568 153.35025231 -0.22852562 C166.82690598 -0.26158212 180.30351337 -0.27960642 193.78020781 -0.28280324 C201.3481013 -0.28496949 208.915862 -0.2937351 216.48371601 -0.31926441 C222.92765694 -0.3409521 229.37143283 -0.34903138 235.81540612 -0.33929763 C239.10332598 -0.33474739 242.39083342 -0.33885485 245.67872143 -0.35605907 C249.24349741 -0.37367115 252.80740441 -0.3667236 256.37217999 -0.35352612 C257.41099451 -0.36449536 258.44980904 -0.37546461 259.5201028 -0.38676625 C265.35240002 -0.33450292 268.79893818 0.18867994 273.39969158 4.13422108 C274.25022311 4.86155256 274.25022311 4.86155256 275.11793709 5.60357761 C275.57527261 6.0614579 276.03260813 6.51933819 276.5038023 6.99109364 C277.30875889 7.78975849 277.30875889 7.78975849 278.12997723 8.60455799 C278.69585552 9.17605579 279.26173382 9.7475536 279.84475994 10.33636951 C280.45862057 10.94833179 281.07248119 11.56029408 281.70494366 12.19080067 C283.72138479 14.20355486 285.73056217 16.22339008 287.73953533 18.24359608 C289.14872084 19.65397517 290.55827785 21.06398318 291.96818829 22.47363758 C294.91908801 25.42609884 297.86660711 28.38187981 300.81155682 31.34027576 C304.56989821 35.11556719 308.33474852 38.8842826 312.10195351 42.65072727 C315.01318037 45.56222735 317.92178363 48.47633661 320.82953358 51.39130878 C322.21590049 52.78083875 323.60285701 54.16978071 324.99043369 55.55810261 C337.36207486 67.94366322 337.36207486 67.94366322 342.69032574 74.20593739 C346.14443906 78.10241771 349.89486407 81.71864112 353.59768391 85.37681293 C355.10965941 86.87113347 356.61783732 88.36919668 358.12507915 89.8682909 C362.40476563 94.1237369 366.69028896 98.37327031 370.98001385 102.61859608 C373.61830282 105.23009308 376.2516905 107.84645035 378.88213444 110.46584797 C379.88057275 111.45809325 380.8809027 112.44843896 381.88317585 113.43681049 C383.28035359 114.81475063 384.67086399 116.19944131 386.06106853 117.58441639 C387.24851414 118.76067585 387.24851414 118.76067585 388.45994854 119.96069813 C391.74281026 123.63921385 392.65022987 126.37046176 392.64020061 131.28479481 C392.64432461 132.84545422 392.64432461 132.84545422 392.64853191 134.4376421 C392.64134136 135.57340183 392.63415081 136.70916157 392.62674236 137.87933826 C392.62703442 139.07961155 392.62732647 140.27988483 392.62762737 141.51653004 C392.62647324 144.8034466 392.61644659 148.09019261 392.60247946 151.3770752 C392.5899722 154.81371475 392.5888016 158.25035769 392.58642864 161.68701649 C392.58021386 168.19282876 392.56380307 174.69857377 392.54372966 181.20435643 C392.52137061 188.61179576 392.51037722 196.0192383 392.50033879 203.42670298 C392.47943683 218.66258129 392.4442609 233.89839251 392.39969158 249.13422108 C394.12469891 249.1106554 394.12469891 249.1106554 395.88455486 249.08661366 C400.16719795 249.0321524 404.44981064 248.99781222 408.73269939 248.96942616 C410.58333777 248.95437637 412.43394069 248.93393175 414.28445721 248.90790272 C416.95056203 248.87135128 419.61619366 248.85445654 422.28250408 248.84125233 C423.10461376 248.82576847 423.92672344 248.81028461 424.77374554 248.79433155 C429.73710182 248.79289033 433.09601445 249.38984134 437.39969158 252.13422108 C441.75862484 256.96439037 442.52507846 259.49493922 442.54013348 265.94679737 C442.54459016 267.00987607 442.54459016 267.00987607 442.54913688 268.0944311 C442.55784321 270.48116 442.55933375 272.86783886 442.56082439 275.25458241 C442.56545122 276.96102983 442.57047569 278.66747622 442.57586956 280.37392139 C442.58900905 285.01861826 442.59544159 289.66330065 442.59988022 294.3080132 C442.60280858 297.20832817 442.60691294 300.10863917 442.61138439 303.00895214 C442.62506369 312.07892585 442.63472811 321.14889049 442.63858628 330.2188738 C442.6430676 340.69696451 442.6606171 351.17492481 442.68958688 361.65297586 C442.71118869 369.74644833 442.72128977 377.83988407 442.7226274 385.93338507 C442.72367655 390.76984457 442.7296076 395.60618154 442.74744701 400.44261074 C442.76390168 404.99227853 442.76609591 409.54173136 442.75730801 414.09141827 C442.75653622 415.76154753 442.76089897 417.43168823 442.77076626 419.10178852 C442.78344652 421.38168075 442.77763084 423.66080718 442.76718426 425.94069386 C442.76865082 427.21662309 442.77011738 428.49255232 442.77162838 429.80714607 C442.2243388 434.70279899 440.48817759 437.17847727 436.83719158 440.38422108 C432.40304033 443.56771428 428.75820351 443.2635378 423.45437908 443.23187733 C422.56936718 443.23046238 421.68435528 443.22904743 420.77252483 443.22758961 C417.93987967 443.22198248 415.10731294 443.20942879 412.27469158 443.19672108 C410.35672397 443.19170699 408.43875513 443.18714393 406.52078533 443.1830492 C401.81372377 443.17201074 397.10672098 443.15474133 392.39969158 443.13422108 C392.42587566 444.26327869 392.45205975 445.39233631 392.47903728 446.5556078 C392.57024583 450.78603389 392.62719475 455.01637498 392.67434978 459.24750233 C392.69933437 461.0708937 392.73333437 462.89418656 392.77688885 464.71722889 C393.24581441 484.86447756 393.24581441 484.86447756 387.39969158 492.13422108 C381.99236767 497.29430522 377.23377611 498.25779331 369.99245262 498.26564884 C369.34835242 498.26770148 368.70425222 498.26975411 368.04063383 498.27186894 C365.87357272 498.27754166 363.7065751 498.27608137 361.53950787 498.27466297 C359.97361961 498.27724645 358.40773201 498.28025956 356.84184533 498.28366637 C352.53179567 498.29174159 348.22176266 498.29352623 343.91170633 498.29426384 C339.26605969 498.29611346 334.62042172 498.3036603 329.97478008 498.31039906 C319.81371516 498.32398617 309.65265418 498.33000756 299.49158168 498.33440971 C293.14891682 498.33717125 286.80625349 498.34140842 280.46358967 498.34591389 C262.90783026 498.35810658 245.35207207 498.3684062 227.79630852 498.37178898 C226.67251766 498.37200854 225.5487268 498.37222811 224.39088168 498.37245433 C223.26438206 498.37267261 222.13788244 498.37289089 220.97724646 498.37311578 C218.69447752 498.37355925 216.41170857 498.37400581 214.12893963 498.37445545 C212.99660419 498.37467688 211.86426876 498.37489831 210.69762013 498.37512645 C192.34411644 498.37907562 173.99065243 498.39653328 155.63716408 498.41981497 C136.80082535 498.44351664 117.96450655 498.45599027 99.12815267 498.4571569 C88.54941034 498.45807427 77.97071972 498.46384246 67.39199162 498.48197651 C58.38518465 498.49736144 49.37844537 498.50250743 40.37162777 498.49423841 C35.77535197 498.49032633 31.17921255 498.4912887 26.58295345 498.50529575 C22.37542195 498.51800106 18.16812976 498.51686692 13.96059874 498.50470504 C12.43839429 498.5027422 10.91617309 498.50585353 9.39399221 498.5145494 C7.32385604 498.52562698 5.25456677 498.51816472 3.18445396 498.50615788 C2.03493049 498.50675496 0.88540702 498.50735205 -0.29895049 498.50796723 C-6.74223274 497.77852437 -11.44502804 495.18794045 -15.60030842 490.13422108 C-19.28817258 484.37642384 -20.16271244 479.57623991 -19.99093342 472.82172108 C-19.98527363 471.96739491 -19.97961384 471.11306873 -19.97378254 470.23285389 C-19.95158232 467.53271355 -19.90141961 464.83395301 -19.85030842 462.13422108 C-19.83022216 460.29179247 -19.81197513 458.44934284 -19.79562092 456.60687733 C-19.7517716 452.11546892 -19.68286094 447.62507805 -19.60030842 443.13422108 C-20.78060627 443.15516834 -21.96090412 443.17611561 -23.17696857 443.19769764 C-27.57137559 443.27029877 -31.96572996 443.31609379 -36.36056232 443.35394764 C-38.25974167 443.37401737 -40.15885956 443.40127959 -42.05782795 443.43597889 C-44.79349681 443.48470217 -47.52834613 443.50723615 -50.26437092 443.52484608 C-51.10835438 443.54549122 -51.95233784 443.56613636 -52.82189655 443.58740711 C-59.19849077 443.58981413 -62.55114176 441.76281302 -67.41280842 437.57172108 C-70.1994562 434.1984106 -69.73352607 430.3632187 -69.74747944 426.20811939 C-69.75115613 425.4992514 -69.75483281 424.79038341 -69.75862092 424.06003457 C-69.76965615 421.67875025 -69.7735013 419.29750957 -69.77731037 416.9162035 C-69.78357508 415.21123077 -69.79022189 413.50625942 -69.79722309 411.80128956 C-69.81463045 407.16485332 -69.82518387 402.52842739 -69.83342862 397.89196658 C-69.83857876 394.99582633 -69.84465444 392.09968928 -69.85093975 389.20355129 C-69.86999008 380.14372622 -69.88422223 371.08390931 -69.89255172 362.02406806 C-69.90232819 351.56293895 -69.92865906 341.10202121 -69.96905261 330.64096659 C-69.99919818 322.55680097 -70.01401906 314.47269599 -70.01733273 306.38847524 C-70.01968474 301.5592202 -70.02866498 296.73019101 -70.05379391 291.90099621 C-70.07705278 287.35783326 -70.08131671 282.81504522 -70.07103252 278.27183819 C-70.07053654 276.6053464 -70.0768754 274.93883629 -70.09058857 273.27240086 C-70.10828009 270.99490895 -70.10121619 268.71876661 -70.08805561 266.44127369 C-70.09044396 265.16756507 -70.09283232 263.89385645 -70.09529305 262.5815506 C-69.39156061 257.68039313 -67.22299918 254.56022205 -63.53780842 251.32172108 C-59.14182564 248.62740905 -54.7490496 249.00592125 -49.77608967 249.03656483 C-48.4839883 249.03868725 -48.4839883 249.03868725 -47.16578388 249.04085255 C-44.41475672 249.04644967 -41.66381097 249.05900162 -38.91280842 249.07172108 C-37.04757522 249.07673645 -35.18234074 249.08129929 -33.31710529 249.08539295 C-28.74480831 249.09641816 -24.17257216 249.11368081 -19.60030842 249.13422108 C-19.60491738 247.94261938 -19.60952635 246.75101768 -19.61427498 245.52330685 C-19.72264774 217.21439184 -19.80505271 188.90548223 -19.85563507 160.59640539 C-19.86188833 157.10933578 -19.86835997 153.6222666 -19.87496662 150.13519764 C-19.87627817 149.4410075 -19.87758973 148.74681736 -19.87894102 148.03159116 C-19.90067642 136.80268891 -19.94008756 125.57391511 -19.9860724 114.34508897 C-20.0328892 102.81665517 -20.06024074 91.28831158 -20.07075089 79.75978458 C-20.07726545 73.28711883 -20.09256124 66.81474409 -20.1289587 60.34217167 C-20.16295572 54.24695104 -20.17335362 48.15214066 -20.16584682 42.05683422 C-20.16721968 39.82278239 -20.17712962 37.58871651 -20.19633579 35.35474682 C-20.22133132 32.29678131 -20.21518934 29.24035071 -20.201581 26.1823473 C-20.21614521 25.30488476 -20.23070942 24.42742222 -20.24571496 23.52336991 C-20.1663555 16.89463102 -18.29399549 11.65764974 -14.60030842 6.13422108 C-10.2772427 1.99255576 -5.96277028 0.01297615 0 0 Z M-6.60030842 14.13422108 C-8.27322405 16.93137057 -8.84992237 18.99015806 -8.84640408 22.234025 C-8.85038582 23.04690731 -8.85436756 23.85978962 -8.85846996 24.69730473 C-8.85264463 25.58420868 -8.84681931 26.47111263 -8.84081745 27.38489246 C-8.84252949 28.32932713 -8.84424152 29.27376179 -8.84600544 30.24681568 C-8.84932218 33.42908689 -8.83825841 36.61114872 -8.8273592 39.79340076 C-8.8267467 42.10673103 -8.82701321 44.42006167 -8.82808971 46.73339176 C-8.82854195 52.93843417 -8.81693517 59.14339971 -8.80286884 65.34842396 C-8.79149411 71.16716223 -8.79094343 76.98588164 -8.7895174 82.80463123 C-8.77901525 99.83117139 -8.75109304 116.8576972 -8.72530842 133.88422108 C-8.68405842 171.91672108 -8.64280842 209.94922108 -8.60030842 249.13422108 C120.09969158 249.13422108 248.79969158 249.13422108 381.39969158 249.13422108 C381.39969158 210.52422108 381.39969158 171.91422108 381.39969158 132.13422108 C346.87535989 131.96377114 346.87535989 131.96377114 312.35086346 131.83636951 C305.65848064 131.79095936 305.65848064 131.79095936 302.5209074 131.76465321 C300.33962866 131.75008319 298.15828941 131.7432694 295.97696209 131.74268055 C292.66369333 131.74025624 289.3514533 131.71286533 286.03836346 131.68011951 C285.07410191 131.68514359 284.10984035 131.69016766 283.11635876 131.69534397 C277.0575153 131.60183395 272.47067654 130.56056731 267.39969158 127.13422108 C265.55984783 125.13422108 265.55984783 125.13422108 264.46219158 123.13422108 C264.08191814 122.47422108 263.70164471 121.81422108 263.30984783 121.13422108 C261.73070651 117.66417662 261.27354646 114.49877007 261.2414732 110.70496082 C261.22678997 109.3841048 261.22678997 109.3841048 261.21181011 108.03656483 C261.20605465 107.07846912 261.20029919 106.12037342 261.19436932 105.13324451 C261.18446972 104.11828907 261.17457012 103.10333363 261.16437054 102.05762196 C261.13278412 98.70297039 261.1080093 95.34830466 261.08328533 91.99359608 C261.06271335 89.66760356 261.04171681 87.34161477 261.02031231 85.01562977 C260.96511695 78.89348836 260.91569643 72.77131336 260.86746502 66.64911366 C260.81723153 60.40193154 260.7615551 54.15479822 260.70633221 47.90765858 C260.59878162 35.64988776 260.49732971 23.39207458 260.39969158 11.13422108 C227.10756134 11.06557656 193.81544869 11.01270329 160.52326341 10.98102509 C156.59413323 10.9772729 152.66500319 10.97338994 148.73587322 10.96942616 C147.56252895 10.96824576 147.56252895 10.96824576 146.36548074 10.96704151 C133.69444506 10.95398235 121.02345015 10.9303257 108.35243867 10.90276269 C95.35388442 10.8747227 82.35535156 10.8580478 69.35676831 10.85195559 C61.33388478 10.84783622 53.31111648 10.83481866 45.28826841 10.81047168 C39.1396263 10.79276118 32.99107231 10.7908519 26.84240818 10.79489803 C24.31762386 10.79407073 21.79283529 10.78807725 19.2680769 10.77660465 C15.82772144 10.76173455 12.38786374 10.76524778 8.94749737 10.77345753 C7.440201 10.76034974 7.440201 10.76034974 5.9024542 10.74697715 C-0.87063235 10.75649678 -0.87063235 10.75649678 -6.60030842 14.13422108 Z M271.39969158 19.13422108 C271.30698507 31.4169935 271.23592302 43.6996826 271.19244289 55.98273373 C271.17157391 61.68635007 271.14326835 67.38972693 271.09793377 73.09320545 C271.05445219 78.59804988 271.03054929 84.10266405 271.02018261 89.60766697 C271.01279545 91.70722421 270.99837005 93.80676893 270.97677135 95.90622807 C270.94770709 98.84855031 270.9437369 101.78992276 270.94559002 104.73236561 C270.93120892 105.59911411 270.91682781 106.46586262 270.90201092 107.35887623 C270.93970841 112.89553939 271.7924088 115.87612361 275.39969158 120.13422108 C278.78304814 121.82589935 282.62657169 121.26292876 286.34744549 121.24774647 C287.73776737 121.24796551 287.73776737 121.24796551 289.15617657 121.24818897 C292.22955929 121.24749054 295.30288191 121.23970135 298.37625408 121.23187733 C300.50331877 121.2300129 302.63038388 121.22858911 304.75744915 121.22758961 C310.3634487 121.22376636 315.96942246 121.2139377 321.5754118 121.20288563 C327.29287651 121.19266738 333.01034538 121.1880911 338.72781658 121.1830492 C349.95178627 121.17231528 361.17573678 121.15524115 372.39969158 121.13422108 C368.8553033 116.91703896 365.24231496 112.85469206 361.33157635 108.96844959 C360.86401928 108.50235279 360.39646221 108.03625599 359.91473675 107.55603504 C358.91250558 106.55757023 357.90912253 105.56026049 356.90466785 104.56403255 C355.30778309 102.98008243 353.71419294 101.39288014 352.12135601 99.80486012 C348.16621004 95.86298049 344.20561658 91.92658919 340.24515057 87.99005604 C336.89014025 84.6549021 333.53727232 81.31762114 330.18711948 77.9775877 C328.63004677 76.42691615 327.06995452 74.8793293 325.50969219 73.33186817 C320.87239289 68.7182857 316.37493932 64.0521468 312.11921978 59.08305836 C308.72852049 55.24018961 305.06591567 51.65836146 301.43875408 48.04047108 C300.60758068 47.20834095 299.77640728 46.37621082 298.92004681 45.51886463 C297.17832429 43.77646607 295.43535619 42.03531179 293.69119549 40.29535389 C291.00822213 37.6177848 288.33068841 34.93485804 285.65359783 32.25140858 C283.95730422 30.55577492 282.26070089 28.86045103 280.56375408 27.16547108 C279.75967113 26.3593639 278.95558819 25.55325672 278.12713909 24.72272205 C277.38901989 23.98775501 276.65090069 23.25278797 275.89041424 22.4955492 C275.23868237 21.84461292 274.58695049 21.19367664 273.91546917 20.52301502 C272.61943956 19.02162977 272.61943956 19.02162977 271.39969158 19.13422108 Z M-58.57363856 262.47669035 C-59.84435571 265.76593649 -59.97791179 268.36818484 -59.98125935 271.89668751 C-59.98593932 272.5637564 -59.99061929 273.2308253 -59.99544108 273.9181084 C-60.00737597 276.14603051 -59.99794028 278.37333578 -59.98849201 280.60126209 C-59.99255836 282.20140408 -59.9979006 283.80154326 -60.00442219 285.40167713 C-60.01809301 289.74249038 -60.01279842 294.0830896 -60.00328493 298.42390656 C-59.99568844 302.96642428 -60.00273379 307.50892371 -60.00744343 312.05144215 C-60.01290045 319.67859658 -60.00571018 327.30566386 -59.9914217 334.93280506 C-59.97508943 343.7528149 -59.98038807 352.57261676 -59.99690092 361.39262158 C-60.01051032 368.96471487 -60.0124383 376.53674551 -60.00458491 384.10884708 C-59.99990614 388.63166332 -59.99928925 393.15438176 -60.00919437 397.67719173 C-60.01785404 401.92816766 -60.01186055 406.17887508 -59.9945116 410.42982197 C-59.99054165 411.99070954 -59.99168951 413.55161966 -59.9982996 415.11249828 C-60.00648527 417.241551 -59.99623082 419.36974072 -59.98125935 421.49873829 C-59.98012827 422.69057508 -59.97899719 423.88241186 -59.97783184 425.11036491 C-59.54194763 428.60167455 -59.16130787 429.74282705 -56.60030842 432.13422108 C-53.82032042 432.53505876 -51.43225706 432.67314807 -48.64950275 432.64037895 C-47.8263904 432.64649231 -47.00327805 432.65260567 -46.15522289 432.65890428 C-43.37296183 432.67461311 -40.591559 432.66159455 -37.80929279 432.64888477 C-35.80418351 432.65420529 -33.79907822 432.6612681 -31.7939806 432.66993183 C-26.26530073 432.68865154 -20.73688702 432.6822222 -15.20819569 432.6717788 C-9.25310105 432.66481318 -3.29806255 432.68076456 2.6570158 432.69377613 C13.65500103 432.71421047 24.65290906 432.71622339 35.65090644 432.70855967 C45.80993582 432.70149496 55.96893353 432.7014216 66.12796307 432.70842266 C67.48912764 432.70933398 68.85029221 432.71024474 70.21145678 432.71115495 C72.2624431 432.71253803 74.31342943 432.71392912 76.36441574 432.71534108 C95.4396946 432.72832738 114.51496282 432.73342923 133.59024334 432.72180748 C134.30973972 432.72136951 135.02923611 432.72093154 135.77053541 432.7204803 C141.6138743 432.71687323 147.45721304 432.71303858 153.30055177 432.70918937 C176.09926777 432.69433887 198.897864 432.70312342 221.69656658 432.73114491 C247.29420178 432.76254613 272.89176606 432.77755144 298.48942089 432.76734489 C301.21675395 432.76630806 303.94408701 432.76532084 306.6714201 432.76436138 C307.34298946 432.7641125 308.01455882 432.76386361 308.70647877 432.76360718 C318.86067057 432.76016172 329.0147999 432.76949368 339.16897869 432.78513241 C350.71145282 432.80286809 362.25377706 432.80260925 373.79624557 432.77978075 C379.69026343 432.76859399 385.58399384 432.76557604 391.47799969 432.78408146 C396.86666047 432.80078315 402.25478082 432.7946761 407.64340591 432.76986467 C409.59961266 432.76494689 411.55586216 432.76858975 413.51203346 432.78135211 C416.15831513 432.79737971 418.80269275 432.78303337 421.44888592 432.76063347 C422.21985922 432.77262515 422.99083252 432.78461682 423.78516865 432.79697189 C426.15506646 432.81221947 426.15506646 432.81221947 429.39969158 432.13422108 C432.58054216 428.35677433 432.7760053 425.26875366 432.78064251 420.41644764 C432.78532248 419.75416786 432.79000245 419.09188808 432.79482424 418.40953922 C432.80675837 416.19776911 432.79732372 413.98662043 432.78787518 411.77484608 C432.7919416 410.18617867 432.79728388 408.59751409 432.80380535 407.00885487 C432.8174764 402.69896472 432.8121812 398.38929014 432.80266809 394.07939625 C432.79507041 389.56804291 432.80211741 385.05670796 432.80682659 380.54535389 C432.81228382 372.96947384 432.80509338 365.39368155 432.79080486 357.81781483 C432.7744784 349.06030845 432.77976693 340.3030116 432.79628408 331.54551029 C432.80989987 324.02520549 432.81181815 316.50496376 432.80396807 308.98465061 C432.79929207 304.49366032 432.79866472 300.00276851 432.80857754 295.51178455 C432.81724628 291.28953211 432.81122707 287.06754971 432.79389477 282.84532642 C432.78992942 281.29614682 432.79106482 279.74694448 432.79768276 278.19777393 C432.80588678 276.08220777 432.79559168 273.96750569 432.78064251 271.85199451 C432.77951143 270.66845387 432.77838036 269.48491322 432.777215 268.2655077 C432.33646337 264.60978828 431.77510629 262.95537561 429.39969158 260.13422108 C426.55582194 259.62283396 424.2986481 259.46174691 421.44888592 259.50501537 C420.62577356 259.49774817 419.80266121 259.49048097 418.95460606 259.48299354 C416.17217436 259.46461828 413.39109959 259.4821565 410.60867596 259.49930286 C408.60356468 259.49354662 406.59845866 259.48560886 404.59336376 259.47566664 C399.0646265 259.45470194 393.53631811 259.46515213 388.00757885 259.48059773 C382.05247807 259.49186807 376.09745325 259.47447005 370.14236736 259.46069813 C359.14436277 259.43970424 348.14648635 259.44158766 337.14847672 259.45525547 C326.98944309 259.4678191 316.83045989 259.47112339 306.6714201 259.46514225 C305.66173568 259.46456936 305.66173568 259.46456936 304.63165361 259.4639849 C301.89942485 259.46242828 299.16719613 259.46083629 296.43496743 259.45918608 C270.78955503 259.44388121 245.14423027 259.45777398 219.49883139 259.48467057 C196.70011284 259.50839972 173.90153391 259.50627663 151.10281658 259.48236561 C125.50517667 259.45560904 99.90761422 259.4449665 74.30996227 259.46042693 C71.58262922 259.46203058 68.85529615 259.46359478 66.12796307 259.46514225 C65.4563937 259.46553764 64.78482434 259.46593302 64.09290439 259.46634039 C53.93871654 259.47203463 43.78458458 259.46536362 33.63040447 259.45274448 C22.08792361 259.4384718 10.5455997 259.44245474 -0.99686241 259.4691482 C-6.89087574 259.4823277 -12.78460503 259.4873685 -18.67861652 259.47090244 C-24.06728505 259.45607536 -29.45540451 259.46407087 -34.84402275 259.4907902 C-36.80022637 259.49640605 -38.75647576 259.49346596 -40.7126503 259.48141126 C-43.35894028 259.46634645 -46.00331525 259.48165236 -48.64950275 259.50501537 C-49.42047606 259.49330954 -50.19144936 259.48160371 -50.98578548 259.46954316 C-54.63643251 259.53458216 -56.16435214 259.61671305 -58.57363856 262.47669035 Z M-8.60030842 443.13422108 C-10.71095444 465.13431213 -10.71095444 465.13431213 -5.60030842 485.13422108 C-2.31380285 487.51401615 0.77533658 487.38566918 4.75004768 487.38869667 C6.06468512 487.39452886 7.37932256 487.40036106 8.73379749 487.40636998 C10.19635816 487.40273663 11.65891836 487.39891225 13.12147808 487.39491749 C14.67229365 487.39793691 16.22310773 487.40182534 17.77391917 487.40651006 C22.04224599 487.41682571 26.31048916 487.41459919 30.57882297 487.41032946 C35.17944591 487.4078687 39.78004837 487.41686828 44.38066387 487.42436695 C53.39624333 487.43713398 62.41179304 487.43890516 71.42738002 487.43656669 C78.75323756 487.43478565 86.07908605 487.43652855 93.40494251 487.44079113 C94.96726789 487.44168391 94.96726789 487.44168391 96.5611554 487.44259473 C98.67687261 487.44380645 100.79258982 487.44502058 102.90830702 487.44623711 C122.76153729 487.45712031 142.61475059 487.45494643 162.46798182 487.44885226 C180.64177696 487.44368203 198.81551851 487.45493997 216.98930304 487.47395048 C235.63805355 487.49330871 254.28677868 487.50158845 272.93553931 487.49782723 C283.41025592 487.49591217 293.88492692 487.4984324 304.35963535 487.51254177 C313.27647414 487.52443087 322.19323923 487.52588829 331.11007898 487.5137516 C335.66154802 487.50784558 340.2128821 487.50681086 344.76434231 487.51875401 C348.92859951 487.52955436 353.09260812 487.52657969 357.25685341 487.51249232 C358.765561 487.50982918 360.27428771 487.51226227 361.78297662 487.52022818 C363.82979459 487.53028766 365.87668228 487.52014913 367.92349434 487.50895119 C369.0616262 487.5090062 370.19975806 487.50906122 371.37237877 487.5091179 C374.82643931 487.08137343 376.66111155 486.26389207 379.39969158 484.13422108 C385.51887817 471.89584791 381.39969158 456.81713824 381.39969158 443.13422108 C252.69969158 443.13422108 123.99969158 443.13422108 -8.60030842 443.13422108 Z " fill="#000000" transform="translate(69.60030841827393,6.865778923034668)"/>
<path d="M0 0 C48.2745098 0 48.2745098 0 58.5625 7.1875 C64.82436885 13.50232335 66.39519295 19.74604062 66.5625 28.4375 C66.48599893 36.52990664 64.93062523 42.81493698 59.25 48.86328125 C56.36548793 51.46804538 53.51516032 53.33856755 50 55 C51.24356113 59.03788577 52.7227307 62.57065322 54.828125 66.23046875 C55.38113281 67.19919922 55.93414062 68.16792969 56.50390625 69.16601562 C57.08011719 70.16310547 57.65632813 71.16019531 58.25 72.1875 C65.12607105 84.17715492 65.12607105 84.17715492 68.421875 90.11328125 C68.9178418 91.00442627 69.41380859 91.89557129 69.92480469 92.8137207 C71 95 71 95 71 97 C66.05 97 61.1 97 56 97 C54.7304233 94.66277589 53.46120498 92.32535652 52.19360352 89.98706055 C51.09913622 87.98274871 49.99399071 85.98423372 48.87866211 83.99145508 C46.32145643 79.40310379 43.87657886 74.89831718 41.9375 70.01171875 C39.44707334 63.81484236 39.44707334 63.81484236 35 59 C28.03878495 56.82898327 21.24854251 57.63529346 14 58 C14 70.87 14 83.74 14 97 C9.38 97 4.76 97 0 97 C0 64.99 0 32.98 0 0 Z M14 11 C14 22.88 14 34.76 14 47 C17.444375 47.061875 20.88875 47.12375 24.4375 47.1875 C25.50411865 47.21481201 26.5707373 47.24212402 27.66967773 47.27026367 C34.91424421 47.3325955 41.35168905 46.59822145 47.375 42.30859375 C51.21474531 37.88734855 53.02648148 34.37555569 53.19921875 28.45703125 C52.73889796 22.77974147 51.19263021 19.24684067 47.25 15.125 C40.13977916 10.47600945 33.30924141 10.74293994 25.0625 10.875 C21.411875 10.91625 17.76125 10.9575 14 11 Z " fill="#000000" transform="translate(135,305)"/>
<path d="M0 0 C7.47633075 5.10043289 12.8337231 12.13795813 15 21 C15 22.65 15 24.3 15 26 C10.71 26 6.42 26 2 26 C0.60026042 23.00520833 -0.79947917 20.01041667 -2.19921875 17.015625 C-4.7943955 12.6696891 -7.55711126 10.55495721 -12.25 8.75 C-19.74115198 7.2517696 -26.14164731 7.40407724 -33 11 C-39.64647319 15.47358772 -42.48814207 20.90215214 -44.08984375 28.58984375 C-45.1242113 34.03754625 -45.34650064 39.34018195 -45.3125 44.875 C-45.30404053 46.32072388 -45.30404053 46.32072388 -45.29541016 47.7956543 C-45.10916525 58.73154957 -43.63453521 68.64812591 -36 77 C-28.50143186 83.02486111 -21.43077553 83.67197172 -12 83 C-6.96210328 81.9430026 -2.60163022 80.30081511 2 78 C2 70.74 2 63.48 2 56 C-5.26 56 -12.52 56 -20 56 C-20 52.37 -20 48.74 -20 45 C-8.45 45 3.1 45 15 45 C15.11498002 50.17921126 15.21444858 55.35397507 15.2746582 60.53344727 C15.29976061 62.29401676 15.33385028 64.05448247 15.37719727 65.81469727 C15.43804115 68.34938179 15.46625113 70.88268575 15.48828125 73.41796875 C15.51408768 74.20149216 15.5398941 74.98501556 15.56648254 75.7922821 C15.56865348 80.04838909 15.39031886 81.52412747 12.58520508 84.9440918 C11.30552856 85.96176636 11.30552856 85.96176636 10 87 C9.38898438 87.48726563 8.77796875 87.97453125 8.1484375 88.4765625 C-3.40976965 95.96139268 -18.06285713 97.02869007 -31.38671875 94.30859375 C-41.15889456 91.05120181 -49.60517242 84.47932466 -54.41015625 75.30859375 C-61.97412034 58.39442332 -62.73497006 35.9357478 -56.125 18.5 C-51.85728553 8.91718326 -45.89800656 1.72387479 -36.11328125 -2.2734375 C-25.17035804 -6.03569945 -10.08356486 -5.82338755 0 0 Z " fill="#000000" transform="translate(362,308)"/>
<path d="M0 0 C4.29 0 8.58 0 13 0 C13.83640015 2.19281616 13.83640015 2.19281616 14.68969727 4.42993164 C16.83290854 10.04843039 18.97688684 15.66663625 21.1210022 21.28479004 C22.07961896 23.79679992 23.03791653 26.30893123 23.99594116 28.82116699 C28.882328 41.63452001 33.77356763 54.44568396 38.734375 67.23046875 C39.08817734 68.14373428 39.44197968 69.05699982 39.8065033 69.99794006 C41.44206887 74.21976948 43.08208625 78.43974783 44.73071289 82.65649414 C45.30638291 84.14069835 45.8818366 85.6249865 46.45703125 87.109375 C46.84921844 88.10392952 46.84921844 88.10392952 47.24932861 89.11857605 C48.32836102 91.91711549 49 93.96858518 49 97 C44.38 97 39.76 97 35 97 C32.03 89.08 29.06 81.16 26 73 C13.13 73 0.26 73 -13 73 C-15.97 80.92 -18.94 88.84 -22 97 C-26.62 97 -31.24 97 -36 97 C-35.11362511 92.56812557 -33.84735918 88.6101351 -32.25390625 84.4140625 C-31.97100739 83.66021774 -31.68810852 82.90637299 -31.39663696 82.12968445 C-30.45587948 79.626614 -29.50933487 77.12577728 -28.5625 74.625 C-27.90061434 72.86880275 -27.23891554 71.11253507 -26.57739258 69.35620117 C-19.65397276 50.99973526 -12.63567697 32.67906415 -5.60546875 14.36328125 C-5.10172226 13.05021248 -5.10172226 13.05021248 -4.58779907 11.71061707 C-4.11931046 10.49128227 -4.11931046 10.49128227 -3.64135742 9.24731445 C-3.37127365 8.54411575 -3.10118988 7.84091705 -2.82292175 7.1164093 C-1.8980993 4.73792941 -0.94777148 2.36942871 0 0 Z M6 18 C3.85966804 23.80090681 1.72352867 29.60333318 -0.40869141 35.40722656 C-1.13507072 37.38258831 -1.86260633 39.35752525 -2.59130859 41.33203125 C-3.63681405 44.16556439 -4.67819017 47.00058506 -5.71875 49.8359375 C-6.04685669 50.72243988 -6.37496338 51.60894226 -6.7130127 52.52230835 C-7.16347961 53.753358 -7.16347961 53.753358 -7.62304688 55.00927734 C-7.88952026 55.73319672 -8.15599365 56.45711609 -8.43054199 57.20297241 C-9.10069473 59.00357759 -9.10069473 59.00357759 -9 61 C1.23 61 11.46 61 22 61 C20.15254454 54.84181513 18.29838163 48.81860445 16.08203125 42.8046875 C15.81992355 42.08636749 15.55781586 41.36804749 15.2877655 40.62796021 C14.46535592 38.37598293 13.63901232 36.12547428 12.8125 33.875 C12.2477835 32.33082546 11.68332832 30.78655533 11.11914062 29.2421875 C9.74910272 25.49368325 8.37553937 21.74648876 7 18 C6.67 18 6.34 18 6 18 Z " fill="#000000" transform="translate(245,305)"/>
<path d="M0 0 C1.36555978 -0.00807831 1.36555978 -0.00807831 2.75870663 -0.01631981 C5.8219447 -0.03067497 8.88475523 -0.02347705 11.94801331 -0.01637268 C14.13898569 -0.0220723 16.3299551 -0.02903496 18.5209198 -0.03717041 C24.481607 -0.0551621 30.44214749 -0.05392214 36.40285373 -0.04822803 C41.37329459 -0.04514483 46.34370691 -0.05121892 51.31414372 -0.05726677 C63.70788405 -0.07213496 76.10155233 -0.06848187 88.49529142 -0.05640347 C99.26246436 -0.04647074 110.02946547 -0.05941071 120.7966119 -0.08333766 C131.84826681 -0.10771209 142.89983772 -0.11694054 153.9515186 -0.11068493 C160.15783142 -0.10730743 166.36400226 -0.10978299 172.57029533 -0.12693596 C178.40535701 -0.14235801 184.24008964 -0.13850219 190.07513809 -0.11963081 C192.21977359 -0.11593178 194.36443321 -0.11909139 196.50904655 -0.1295166 C199.43089417 -0.14263829 202.35163823 -0.13125739 205.2734375 -0.11352539 C206.12742124 -0.1231304 206.98140499 -0.1327354 207.86126703 -0.14263147 C211.54145607 -0.09649796 213.74729105 0.0580593 216.76594639 2.25494289 C218.20021057 4.38768005 218.20021057 4.38768005 218.07521057 7.01268005 C217.20021057 9.38768005 217.20021057 9.38768005 215.20021057 11.38768005 C212.24644127 11.58568984 209.38630071 11.65683105 206.43128967 11.64164734 C205.51219267 11.64476732 204.59309567 11.6478873 203.64614725 11.65110183 C200.54756783 11.65911807 197.44918229 11.65274411 194.3506012 11.64646912 C192.13682947 11.64917737 189.92305865 11.65273736 187.70928955 11.65708923 C181.68258406 11.66623522 175.65594677 11.6626599 169.62924004 11.65633106 C163.33473903 11.65128247 157.04024402 11.65595932 150.7457428 11.65910339 C139.49541203 11.66298001 128.24510949 11.6567481 116.99478537 11.64658472 C106.78704057 11.63764879 96.57934126 11.63920071 86.37159729 11.64842224 C74.5275467 11.65911693 62.68351816 11.66311375 50.8394618 11.65719771 C44.56617102 11.6540728 38.2929116 11.65368291 32.0196228 11.66027069 C26.12310465 11.6660298 20.22667275 11.66207365 14.33016396 11.65048218 C12.16050167 11.64782789 9.99083218 11.64861369 7.82117271 11.65300751 C4.87039285 11.65843417 1.91989325 11.65166404 -1.03086853 11.64164734 C-2.3332787 11.6483395 -2.3332787 11.6483395 -3.66200018 11.65516686 C-9.57148941 11.61598007 -9.57148941 11.61598007 -11.79978943 9.38768005 C-12.3603611 4.11830633 -12.3603611 4.11830633 -10.52029842 1.7200436 C-7.49332284 -0.62404872 -3.67801579 -0.02581718 0 0 Z " fill="#000000" transform="translate(106.79978942871094,199.61231994628906)"/>
<path d="M0 0 C1.14380358 0.00566899 1.14380358 0.00566899 2.3107143 0.0114525 C3.11884982 0.00762695 3.92698534 0.0038014 4.75960982 -0.00014007 C7.48272884 -0.01050508 10.20563837 -0.00647134 12.92877156 -0.0025093 C14.87491511 -0.00685384 16.82105696 -0.01203612 18.76719624 -0.01799697 C24.06465012 -0.03142599 29.36203283 -0.03196131 34.65950042 -0.02943367 C39.07575219 -0.02836659 43.49198939 -0.03324056 47.90823805 -0.03803909 C58.3236222 -0.04914779 68.73897028 -0.04956404 79.15435749 -0.04352492 C89.91301571 -0.03748286 100.67154321 -0.04979897 111.43017912 -0.07109499 C120.65482693 -0.08868579 129.87943304 -0.09471634 139.10409701 -0.09145725 C144.61899898 -0.0896402 150.13380773 -0.09232235 155.64869457 -0.10617179 C160.83364056 -0.11870456 166.01838217 -0.11684935 171.20332485 -0.1037609 C173.10972241 -0.1013856 175.01613414 -0.10416367 176.92251545 -0.11238402 C179.51838282 -0.12277297 182.11355436 -0.11481463 184.70939595 -0.10207289 C185.84985344 -0.11313432 185.84985344 -0.11313432 187.01335049 -0.12441921 C189.97737036 -0.09366066 192.06556017 -0.06628061 194.57286888 1.60413152 C195.57354695 3.27214891 195.57354695 3.27214891 195.44854695 6.33464891 C194.57354695 9.27214891 194.57354695 9.27214891 191.57354695 11.27214891 C188.94449576 11.46767044 186.42143925 11.54606261 183.79205281 11.53284532 C182.99122997 11.53667087 182.19040713 11.54049641 181.36531693 11.54443789 C178.67294205 11.55478424 175.98077979 11.55077268 173.2883907 11.54680711 C171.3618038 11.55115264 169.43521864 11.55633526 167.50863606 11.56229478 C162.26909055 11.57571212 157.02961706 11.57626049 151.79005772 11.57373148 C147.42097695 11.57266377 143.05191088 11.57753994 138.68283325 11.5823369 C128.37914076 11.59344124 118.07548472 11.59386408 107.77178913 11.58782274 C97.12955715 11.58177903 86.48745725 11.59410193 75.84524781 11.6153928 C66.71824348 11.63298334 57.5912813 11.63901426 48.46426064 11.63575506 C43.00861799 11.63393821 37.55306957 11.63661837 32.09744221 11.6504696 C26.96911574 11.66300219 21.8409959 11.66114736 16.71267277 11.64805871 C14.82723761 11.64568349 12.9417881 11.64846121 11.05636936 11.65668184 C8.48901676 11.66707131 5.92236763 11.6591121 3.35504109 11.64637071 C2.22727961 11.65743214 2.22727961 11.65743214 1.07673508 11.66871703 C-1.86094387 11.63789525 -3.91973342 11.61531424 -6.39326519 9.94016629 C-7.9958988 7.35281426 -7.74158511 5.23439026 -7.42645305 2.27214891 C-4.92243809 -0.23186605 -3.41672781 0.02880275 0 0 Z " fill="#000000" transform="translate(102.42645305395126,164.7278510928154)"/>
<path d="M0 0 C1.02994835 -0.00701996 1.02994835 -0.00701996 2.08070374 -0.01418173 C4.38082206 -0.02614504 6.68034603 -0.01666969 8.98046875 -0.00723267 C10.62972359 -0.01129779 12.27897571 -0.01663934 13.92822266 -0.02316284 C18.40751817 -0.03684935 22.88660659 -0.03153231 27.36590576 -0.02202559 C32.05123456 -0.0144359 36.73654551 -0.02147267 41.421875 -0.02618408 C49.290397 -0.03164365 57.15883456 -0.02444474 65.02734375 -0.01016235 C74.12737292 0.00616455 83.22720045 0.00087618 92.32722473 -0.01564157 C100.13708727 -0.0292507 107.94688908 -0.0311789 115.75675964 -0.02332556 C120.42267157 -0.01864589 125.08848868 -0.01803226 129.75439453 -0.02793503 C134.14078216 -0.03659409 138.52690956 -0.03060226 142.91326904 -0.01325226 C144.52414518 -0.00928173 146.13504317 -0.01043113 147.74591064 -0.01704025 C149.94288303 -0.02522376 152.13901861 -0.01497384 154.3359375 0 C155.56594482 0.00113108 156.79595215 0.00226215 158.06323242 0.00342751 C161.41934632 0.41151743 162.84396588 0.95335541 165.16796875 3.38095093 C165.54296875 6.44345093 165.54296875 6.44345093 165.16796875 9.38095093 C162.31678255 12.23213713 160.40722764 11.6325342 156.41113281 11.63491821 C155.70846409 11.63803819 155.00579536 11.64115818 154.28183365 11.6443727 C151.91566959 11.6523815 149.54975994 11.64601798 147.18359375 11.63973999 C145.49198251 11.64244858 143.80037246 11.64600876 142.10876465 11.65036011 C137.50556057 11.65950213 132.90244582 11.65593241 128.29924011 11.64960194 C123.490181 11.6445513 118.68112972 11.64923077 113.87207031 11.65237427 C105.79490785 11.65601665 97.71778192 11.65120768 89.640625 11.64169312 C80.29183652 11.63080804 70.94313527 11.63433343 61.59434891 11.64534593 C53.57904944 11.65441106 45.56377629 11.65570788 37.54847336 11.65046859 C32.75630004 11.64734462 27.96416778 11.64695122 23.17199707 11.65354156 C18.66750489 11.65930317 14.16312557 11.65533998 9.65864563 11.64375305 C8.00177702 11.64110009 6.34489896 11.64188233 4.68803406 11.64627838 C2.4334944 11.65171036 0.17932076 11.64492869 -2.07519531 11.63491821 C-3.33914124 11.63416416 -4.60308716 11.63341011 -5.90533447 11.63263321 C-8.83203125 11.38095093 -8.83203125 11.38095093 -10.83203125 9.38095093 C-11.20703125 6.44345093 -11.20703125 6.44345093 -10.83203125 3.38095093 C-7.54380739 -0.05384583 -4.60336244 0.00423311 0 0 Z " fill="#000000" transform="translate(105.83203125,128.61904907226563)"/>
<path d="M0 0 C1.10658966 0.00607269 1.10658966 0.00607269 2.23553467 0.01226807 C3.01289978 0.00876343 3.79026489 0.00525879 4.59118652 0.00164795 C7.16803849 -0.00717493 9.74461727 -0.00131833 12.32147217 0.00543213 C14.10744276 0.00408564 15.89341299 0.00214524 17.67938232 -0.00036621 C21.42534876 -0.00331823 25.17121992 0.00098264 28.91717529 0.01031494 C33.7261005 0.02170953 38.53480248 0.01515047 43.34371948 0.00317001 C47.03250825 -0.00404651 50.72124383 -0.00176162 54.41003418 0.0034256 C56.18351264 0.00476267 57.95699587 0.00311237 59.73046875 -0.00153351 C62.20624642 -0.00659536 64.68165927 0.0011065 67.15740967 0.01226807 C67.89513611 0.0082196 68.63286255 0.00417114 69.39294434 0 C74.46794339 0.04252835 74.46794339 0.04252835 76.69647217 2.27105713 C77.00897217 5.77105713 77.00897217 5.77105713 76.69647217 9.27105713 C73.07240554 11.68710155 70.42958629 11.55358735 66.24334717 11.52984619 C65.48694946 11.53335083 64.73055176 11.53685547 63.95123291 11.54046631 C61.44955279 11.54927281 58.94815519 11.54343835 56.44647217 11.53668213 C54.70916693 11.53802909 52.97186205 11.53996988 51.23455811 11.54248047 C47.59292005 11.54543026 43.95138008 11.54113874 40.30975342 11.53179932 C35.63883659 11.52040485 30.9681496 11.5269651 26.29724121 11.53894424 C22.7096381 11.54616675 19.1220896 11.54387312 15.53448486 11.53868866 C13.81207248 11.53735324 12.08965516 11.53899611 10.36724854 11.54364777 C7.96123089 11.54871941 5.55558694 11.54099393 3.14959717 11.52984619 C2.43573853 11.53389465 1.72187988 11.53794312 0.98638916 11.54211426 C-2.67173242 11.51066973 -4.17076399 11.35956636 -7.30352783 9.27105713 C-7.61602783 5.77105713 -7.61602783 5.77105713 -7.30352783 2.27105713 C-4.82283253 -0.20963817 -3.38561825 0.02837139 0 0 Z " fill="#000000" transform="translate(102.30352783203125,93.72894287109375)"/>
<path d="M0 0 C0.83426514 -0.00630432 1.66853027 -0.01260864 2.52807617 -0.019104 C3.43017822 -0.01505554 4.33228027 -0.01100708 5.26171875 -0.00683594 C6.64870972 -0.00970612 6.64870972 -0.00970612 8.0637207 -0.01263428 C10.02067334 -0.0139966 11.97763499 -0.0102969 13.93457031 -0.00195312 C16.93705465 0.00874572 19.93894062 -0.00184685 22.94140625 -0.01464844 C24.83984508 -0.01332685 26.73828353 -0.01076448 28.63671875 -0.00683594 C29.5388208 -0.0108844 30.44092285 -0.01493286 31.37036133 -0.019104 C32.62175903 -0.00964752 32.62175903 -0.00964752 33.8984375 0 C34.63408936 0.00159119 35.36974121 0.00318237 36.12768555 0.00482178 C37.94921875 0.25878906 37.94921875 0.25878906 39.94921875 2.25878906 C40.26171875 5.75878906 40.26171875 5.75878906 39.94921875 9.25878906 C36.01632273 11.88071974 32.61393999 11.58272462 28.046875 11.59472656 C27.17276474 11.60138336 26.29865448 11.60804016 25.39805603 11.61489868 C23.54965316 11.62502195 21.70121377 11.6297158 19.8527832 11.62939453 C17.02559188 11.6337676 14.19996193 11.67008908 11.37304688 11.70800781 C9.57682826 11.71387607 7.78060222 11.7178454 5.984375 11.71972656 C5.13948013 11.7340976 4.29458527 11.74846863 3.42408752 11.76327515 C-2.41751998 11.71782385 -2.41751998 11.71782385 -5.62329102 9.39404297 C-7.05078125 7.25878906 -7.05078125 7.25878906 -6.92578125 4.63378906 C-5.46356728 0.66492256 -4.0046344 0.00866187 0 0 Z " fill="#000000" transform="translate(204.05078125,93.7412109375)"/>
</svg>
